<svg width="278" height="138" viewBox="0 0 278 138" fill="none" xmlns="http://www.w3.org/2000/svg">
<g filter="url(#filter0_d_40_1787)">
<rect x="40" y="20" width="198" height="58" rx="10" fill="white"/>
</g>
<path d="M68.2383 40.3906C68.6873 39.0086 70.6424 39.0086 71.0914 40.3906L72.1715 43.7147C72.3723 44.3328 72.9483 44.7512 73.5981 44.7512H77.0933C78.5464 44.7512 79.1506 46.6106 77.975 47.4647L75.1473 49.5192C74.6216 49.9011 74.4016 50.5782 74.6024 51.1962L75.6825 54.5204C76.1315 55.9023 74.5498 57.0515 73.3742 56.1974L70.5465 54.143C70.0208 53.761 69.3089 53.761 68.7832 54.143L65.9555 56.1974C64.7799 57.0515 63.1982 55.9023 63.6472 54.5204L64.7273 51.1962C64.9281 50.5782 64.7081 49.9011 64.1824 49.5192L61.3547 47.4647C60.1791 46.6106 60.7833 44.7512 62.2364 44.7512H65.7316C66.3815 44.7512 66.9574 44.3328 67.1582 43.7147L68.2383 40.3906Z" fill="#FFD130"/>
<path d="M95.5684 40.3906C96.0174 39.0086 97.9725 39.0086 98.4215 40.3906L99.5016 43.7147C99.7024 44.3328 100.278 44.7512 100.928 44.7512H104.423C105.877 44.7512 106.481 46.6106 105.305 47.4647L102.477 49.5192C101.952 49.9011 101.732 50.5782 101.932 51.1962L103.013 54.5204C103.462 55.9023 101.88 57.0515 100.704 56.1974L97.8766 54.143C97.3509 53.761 96.639 53.761 96.1133 54.143L93.2856 56.1974C92.11 57.0515 90.5283 55.9023 90.9773 54.5204L92.0574 51.1962C92.2582 50.5782 92.0382 49.9011 91.5125 49.5192L88.6848 47.4647C87.5092 46.6106 88.1134 44.7512 89.5665 44.7512H93.0617C93.7115 44.7512 94.2875 44.3328 94.4883 43.7147L95.5684 40.3906Z" fill="#FFD130"/>
<path d="M122.898 40.3906C123.347 39.0086 125.303 39.0086 125.752 40.3906L126.832 43.7147C127.033 44.3328 127.608 44.7512 128.258 44.7512H131.754C133.207 44.7512 133.811 46.6106 132.635 47.4647L129.807 49.5192C129.282 49.9011 129.062 50.5782 129.263 51.1962L130.343 54.5204C130.792 55.9023 129.21 57.0515 128.034 56.1974L125.207 54.143C124.681 53.761 123.969 53.761 123.443 54.143L120.616 56.1974C119.44 57.0515 117.858 55.9023 118.307 54.5204L119.387 51.1962C119.588 50.5782 119.368 49.9011 118.843 49.5192L116.015 47.4647C114.839 46.6106 115.443 44.7512 116.897 44.7512H120.392C121.042 44.7512 121.618 44.3328 121.818 43.7147L122.898 40.3906Z" fill="#FFD130"/>
<path d="M150.227 40.3906C150.676 39.0086 152.631 39.0086 153.08 40.3906L154.16 43.7147C154.361 44.3328 154.937 44.7512 155.586 44.7512H159.082C160.535 44.7512 161.139 46.6106 159.963 47.4647L157.136 49.5192C156.61 49.9011 156.39 50.5782 156.591 51.1962L157.671 54.5204C158.12 55.9023 156.538 57.0515 155.363 56.1974L152.535 54.143C152.009 53.761 151.297 53.761 150.771 54.143L147.944 56.1974C146.768 57.0515 145.186 55.9023 145.636 54.5204L146.716 51.1962C146.916 50.5782 146.696 49.9011 146.171 49.5192L143.343 47.4647C142.167 46.6106 142.772 44.7512 144.225 44.7512H147.72C148.37 44.7512 148.946 44.3328 149.146 43.7147L150.227 40.3906Z" fill="#FFD130"/>
<path d="M177.557 40.3906C178.006 39.0086 179.961 39.0086 180.41 40.3906L181.49 43.7147C181.691 44.3328 182.267 44.7512 182.916 44.7512H186.412C187.865 44.7512 188.469 46.6106 187.293 47.4647L184.466 49.5192C183.94 49.9011 183.72 50.5782 183.921 51.1962L185.001 54.5204C185.45 55.9023 183.868 57.0515 182.693 56.1974L179.865 54.143C179.339 53.761 178.627 53.761 178.102 54.143L175.274 56.1974C174.098 57.0515 172.517 55.9023 172.966 54.5204L174.046 51.1962C174.246 50.5782 174.026 49.9011 173.501 49.5192L170.673 47.4647C169.497 46.6106 170.102 44.7512 171.555 44.7512H175.05C175.7 44.7512 176.276 44.3328 176.477 43.7147L177.557 40.3906Z" fill="url(#paint0_linear_40_1787)"/>
<path d="M203.768 21.5V18.764H197.704L197.416 18.14L203.816 10.22H204.568V18.044H206.392V18.764H204.568V21.5H203.768ZM198.424 18.044H203.768V11.42L198.424 18.044ZM208.585 21.5V20.14H209.641V21.5H208.585ZM215.793 21.692C215.068 21.692 214.364 21.5267 213.681 21.196C212.998 20.8547 212.396 20.4173 211.873 19.884L212.465 19.292C213.564 20.3907 214.684 20.94 215.825 20.94C216.7 20.94 217.42 20.668 217.985 20.124C218.55 19.58 218.833 18.9027 218.833 18.092C218.833 17.3133 218.545 16.6787 217.969 16.188C217.404 15.6867 216.668 15.436 215.761 15.436C214.94 15.436 214.097 15.6707 213.233 16.14L212.593 15.724L212.913 10.3H219.201V11.1H213.649L213.377 15.292C214.209 14.8867 215.036 14.684 215.857 14.684C216.956 14.684 217.868 15.004 218.593 15.644C219.329 16.2733 219.697 17.0893 219.697 18.092C219.697 19.148 219.329 20.012 218.593 20.684C217.857 21.356 216.924 21.692 215.793 21.692Z" fill="black" fill-opacity="0.7"/>
<defs>
<filter id="filter0_d_40_1787" x="0" y="0" width="278" height="138" filterUnits="userSpaceOnUse" color-interpolation-filters="sRGB">
<feFlood flood-opacity="0" result="BackgroundImageFix"/>
<feColorMatrix in="SourceAlpha" type="matrix" values="0 0 0 0 0 0 0 0 0 0 0 0 0 0 0 0 0 0 127 0" result="hardAlpha"/>
<feOffset dy="20"/>
<feGaussianBlur stdDeviation="20"/>
<feComposite in2="hardAlpha" operator="out"/>
<feColorMatrix type="matrix" values="0 0 0 0 0 0 0 0 0 0 0 0 0 0 0 0 0 0 0.1 0"/>
<feBlend mode="normal" in2="BackgroundImageFix" result="effect1_dropShadow_40_1787"/>
<feBlend mode="normal" in="SourceGraphic" in2="effect1_dropShadow_40_1787" result="shape"/>
</filter>
<linearGradient id="paint0_linear_40_1787" x1="171.5" y1="48.165" x2="183.5" y2="47.665" gradientUnits="userSpaceOnUse">
<stop stop-color="#FFD130"/>
<stop offset="1" stop-color="#BEBEBE"/>
<stop offset="1" stop-color="#FFD130" stop-opacity="0"/>
</linearGradient>
</defs>
</svg>
