<svg width="256" height="201" viewBox="0 0 256 201" fill="none" xmlns="http://www.w3.org/2000/svg">
<g filter="url(#filter0_d_40_1965)">
<g clip-path="url(#clip0_40_1965)">
<rect x="40" y="20.5" width="176" height="120" rx="20" fill="white"/>
<g clip-path="url(#clip1_40_1965)">
<path d="M177.001 48.502C177.071 48.502 177.141 48.496 177.209 48.48C182.437 47.366 186.051 42.846 186.001 37.492C185.999 37.192 185.861 36.908 185.625 36.722C185.391 36.534 185.085 36.458 184.791 36.524C179.565 37.638 175.951 42.158 176.001 47.512C176.003 47.812 176.141 48.096 176.375 48.282C176.555 48.426 176.775 48.502 177.001 48.502Z" fill="#303C42"/>
<path opacity="0.2" d="M176.689 48.2C176.639 42.846 180.253 38.326 185.481 37.212C185.635 37.176 185.791 37.186 185.939 37.224C185.881 37.03 185.787 36.85 185.627 36.722C185.393 36.534 185.087 36.458 184.793 36.524C179.565 37.638 175.951 42.158 176.001 47.512C176.003 47.812 176.141 48.096 176.375 48.282C176.485 48.37 176.615 48.424 176.749 48.46C176.725 48.374 176.689 48.29 176.689 48.2Z" fill="#303A42"/>
<path d="M195.34 69.562C191.67 68.234 190 64.452 190 61.502C190 58.328 191.652 55.448 194.42 53.798C194.678 53.644 194.852 53.384 194.898 53.088C194.942 52.792 194.852 52.492 194.65 52.268C191.492 48.772 187.23 48.5 186 48.5C184.05 48.5 182.658 49.028 181.314 49.54C180.01 50.036 178.78 50.502 177 50.502C175.22 50.502 173.99 50.036 172.686 49.54C171.342 49.03 169.95 48.5 168 48.5C166.772 48.5 156 48.892 156 62.5C156 73.63 163.592 84.5 168 84.5C170.698 84.5 172.25 83.87 173.62 83.312C174.69 82.878 175.616 82.502 177 82.502C178.384 82.502 179.31 82.878 180.38 83.312C181.75 83.868 183.302 84.5 186 84.5C189.582 84.5 193.8 77.446 195.952 70.81C196.118 70.298 195.848 69.744 195.34 69.562Z" fill="#303C42"/>
<path opacity="0.2" d="M156.708 63.21C156.708 49.602 167.48 49.21 168.708 49.21C170.658 49.21 172.05 49.738 173.394 50.25C174.696 50.746 175.928 51.212 177.708 51.212C179.488 51.212 180.718 50.746 182.022 50.25C183.366 49.74 184.758 49.21 186.708 49.21C187.856 49.21 191.628 49.482 194.694 52.346C194.676 52.322 194.67 52.29 194.65 52.268C191.492 48.772 187.23 48.5 186 48.5C184.05 48.5 182.658 49.028 181.314 49.54C180.01 50.036 178.78 50.502 177 50.502C175.22 50.502 173.99 50.036 172.686 49.54C171.342 49.03 169.95 48.5 168 48.5C166.772 48.5 156 48.892 156 62.5C156 70.606 160.028 78.556 163.92 82.286C160.264 78.314 156.708 70.824 156.708 63.21Z" fill="#303A42"/>
<path d="M177 48.502C177.07 48.502 177.14 48.496 177.208 48.48C182.436 47.366 186.05 42.846 186 37.492C185.998 37.192 185.86 36.908 185.624 36.722C185.39 36.534 185.084 36.458 184.79 36.524C179.564 37.638 175.95 42.158 176 47.512C176.002 47.812 176.14 48.096 176.374 48.282C176.554 48.426 176.774 48.502 177 48.502ZM195.34 69.562C191.67 68.234 190 64.452 190 61.502C190 58.328 191.652 55.448 194.42 53.798C194.678 53.644 194.852 53.384 194.898 53.088C194.942 52.792 194.852 52.492 194.65 52.268C191.492 48.772 187.23 48.5 186 48.5C184.05 48.5 182.658 49.028 181.314 49.54C180.01 50.036 178.78 50.502 177 50.502C175.22 50.502 173.99 50.036 172.686 49.54C171.342 49.03 169.95 48.5 168 48.5C166.772 48.5 156 48.892 156 62.5C156 73.63 163.592 84.5 168 84.5C170.698 84.5 172.25 83.87 173.62 83.312C174.69 82.878 175.616 82.502 177 82.502C178.384 82.502 179.31 82.878 180.38 83.312C181.75 83.87 183.302 84.5 186 84.5C189.582 84.5 193.8 77.446 195.952 70.81C196.118 70.298 195.848 69.744 195.34 69.562Z" fill="url(#paint0_linear_40_1965)"/>
</g>
<path d="M56.748 57.5L62.29 45.515H63.14L68.682 57.5H67.713L66.2 54.168H59.179L57.666 57.5H56.748ZM59.553 53.369H65.826L62.698 46.484L59.553 53.369ZM69.7707 57.5L75.3127 45.515H76.1627L81.7047 57.5H80.7357L79.2227 54.168H72.2017L70.6887 57.5H69.7707ZM72.5757 53.369H78.8487L75.7207 46.484L72.5757 53.369ZM83.8133 57.5V45.6H88.1313C89.4573 45.6 90.5227 45.9287 91.3273 46.586C92.1433 47.232 92.5513 48.1273 92.5513 49.272C92.5513 50.4733 92.1037 51.4083 91.2083 52.077C90.3243 52.7343 89.225 53.063 87.9103 53.063H84.6973V57.5H83.8133ZM84.6973 52.247H87.9613C89.072 52.247 89.9673 51.9807 90.6473 51.448C91.3273 50.904 91.6673 50.1843 91.6673 49.289C91.6673 48.371 91.3387 47.6627 90.6813 47.164C90.0353 46.6653 89.1627 46.416 88.0633 46.416H84.6973V52.247ZM94.7608 57.5V45.6H95.6448V56.684H102.632V57.5H94.7608Z" fill="#303A42"/>
<path d="M59.92 87.872V86.458C58.6787 86.2993 57.5773 85.856 56.616 85.128L57.708 83.532C58.5107 84.1387 59.2713 84.5167 59.99 84.666V82.44C58.9447 82.16 58.1793 81.796 57.694 81.348C57.218 80.8907 56.98 80.256 56.98 79.444C56.98 78.6787 57.246 78.0533 57.778 77.568C58.31 77.0827 59.024 76.7933 59.92 76.7V75.888H61.376V76.728C62.3187 76.8587 63.1867 77.204 63.98 77.764L63.042 79.402C62.4447 79.0007 61.866 78.7253 61.306 78.576V80.69C62.3793 80.9793 63.154 81.362 63.63 81.838C64.106 82.3047 64.344 82.9347 64.344 83.728C64.344 84.4933 64.0733 85.1187 63.532 85.604C63 86.0893 62.2813 86.3833 61.376 86.486V87.872H59.92ZM59.99 80.34V78.45C59.346 78.534 59.024 78.8327 59.024 79.346C59.024 79.57 59.0893 79.7613 59.22 79.92C59.36 80.0693 59.6167 80.2093 59.99 80.34ZM61.306 84.736C61.9687 84.6333 62.3 84.3253 62.3 83.812C62.3 83.5693 62.2253 83.3733 62.076 83.224C61.936 83.0653 61.6793 82.916 61.306 82.776V84.736ZM68.7608 86.5V75.52L66.3208 76.12L65.6808 73.6L69.7008 72.4H71.8008V86.5H68.7608ZM81.7483 86.5V83.48H74.9083L74.4083 81.3L82.0883 72.4H84.6883V80.98H86.5683V83.48H84.6883V86.5H81.7483ZM78.0283 80.98H81.7483V76.62L78.0283 80.98ZM93.9473 86.74C91.6673 86.74 89.8473 85.9333 88.4873 84.32L90.6073 82.3C91.6073 83.42 92.734 83.98 93.9873 83.98C94.574 83.98 95.0473 83.8267 95.4073 83.52C95.7807 83.2 95.9673 82.7733 95.9673 82.24C95.9673 81.6667 95.7273 81.2267 95.2473 80.92C94.7673 80.6133 94.094 80.46 93.2273 80.46H91.9473L91.4673 78.5L94.8073 75.14H89.3073V72.5H98.7673V74.82L95.2273 78.2C97.734 78.6267 98.9873 79.9467 98.9873 82.16C98.9873 83.5067 98.5273 84.6067 97.6073 85.46C96.7007 86.3133 95.4807 86.74 93.9473 86.74ZM101.079 89.74L100.819 88.48C102.126 88.3333 102.779 87.7467 102.779 86.72V86.5H101.539V83.3H104.779V86C104.779 87.28 104.466 88.2133 103.839 88.8C103.226 89.4 102.306 89.7133 101.079 89.74ZM114.132 86.5V83.48H107.292L106.792 81.3L114.472 72.4H117.072V80.98H118.952V83.48H117.072V86.5H114.132ZM110.412 80.98H114.132V76.62L110.412 80.98ZM126.331 86.74C124.051 86.74 122.231 85.9333 120.871 84.32L122.991 82.3C123.991 83.42 125.118 83.98 126.371 83.98C126.958 83.98 127.431 83.8267 127.791 83.52C128.164 83.2 128.351 82.7733 128.351 82.24C128.351 81.6667 128.111 81.2267 127.631 80.92C127.151 80.6133 126.478 80.46 125.611 80.46H124.331L123.851 78.5L127.191 75.14H121.691V72.5H131.151V74.82L127.611 78.2C130.118 78.6267 131.371 79.9467 131.371 82.16C131.371 83.5067 130.911 84.6067 129.991 85.46C129.084 86.3133 127.864 86.74 126.331 86.74Z" fill="#303A42"/>
<path d="M59.54 110.144V107.564H56.936V106.988H59.54V104.408H60.14V106.988H62.744V107.564H60.14V110.144H59.54ZM67.4078 111.644C66.1278 111.644 65.0998 111.14 64.3238 110.132L64.8038 109.736C65.5078 110.632 66.3798 111.08 67.4198 111.08C68.0038 111.08 68.4958 110.904 68.8958 110.552C69.2958 110.2 69.4958 109.748 69.4958 109.196C69.4958 108.62 69.2518 108.172 68.7638 107.852C68.2838 107.532 67.6558 107.372 66.8798 107.372H66.4238L66.2678 107.024L69.1598 103.688H64.7558V103.1H70.0118V103.544L67.1678 106.796C67.5438 106.82 67.8958 106.884 68.2238 106.988C68.5598 107.084 68.8758 107.224 69.1718 107.408C69.4678 107.584 69.7038 107.828 69.8798 108.14C70.0558 108.444 70.1438 108.796 70.1438 109.196C70.1438 109.908 69.8718 110.496 69.3278 110.96C68.7918 111.416 68.1518 111.644 67.4078 111.644ZM73.148 111.5V103.688L71.528 104.24L71.36 103.748L73.28 103.04H73.76V111.5H73.148ZM75.7995 112.784L75.6555 112.484C76.1035 112.26 76.3275 111.968 76.3275 111.608V111.5H76.0035V110.48H76.7955V111.368C76.7955 111.744 76.7195 112.04 76.5675 112.256C76.4155 112.472 76.1595 112.648 75.7995 112.784ZM81.7572 111.644C80.8932 111.644 80.1812 111.364 79.6212 110.804C79.2532 110.436 78.9812 110.004 78.8052 109.508C78.6372 109.012 78.5532 108.344 78.5532 107.504C78.5532 106.208 78.8652 105.128 79.4892 104.264C80.1212 103.392 80.9492 102.956 81.9732 102.956C82.7972 102.956 83.6052 103.28 84.3972 103.928L84.0012 104.408C83.3372 103.816 82.6452 103.52 81.9252 103.52C81.1012 103.52 80.4372 103.904 79.9332 104.672C79.4292 105.44 79.1772 106.44 79.1772 107.672V107.876C79.7852 106.836 80.6612 106.316 81.8052 106.316C82.5892 106.316 83.2652 106.56 83.8332 107.048C84.4092 107.528 84.6972 108.14 84.6972 108.884C84.6972 109.676 84.4132 110.336 83.8452 110.864C83.2852 111.384 82.5892 111.644 81.7572 111.644ZM81.8052 111.08C82.4692 111.08 83.0092 110.868 83.4252 110.444C83.8412 110.02 84.0492 109.5 84.0492 108.884C84.0492 108.308 83.8332 107.828 83.4012 107.444C82.9772 107.06 82.4332 106.868 81.7692 106.868C81.1052 106.868 80.5492 107.08 80.1012 107.504C79.6532 107.928 79.4292 108.416 79.4292 108.968C79.4292 109.568 79.6532 110.072 80.1012 110.48C80.5572 110.88 81.1252 111.08 81.8052 111.08ZM86.0604 111.5V111.032L89.1924 108.2C89.8884 107.568 90.3724 107.044 90.6444 106.628C90.9164 106.204 91.0524 105.772 91.0524 105.332C91.0524 104.804 90.8644 104.372 90.4884 104.036C90.1204 103.7 89.6764 103.532 89.1564 103.532C88.6444 103.532 88.1964 103.66 87.8124 103.916C87.4364 104.172 87.0644 104.564 86.6964 105.092L86.2284 104.78C86.6284 104.172 87.0524 103.72 87.5004 103.424C87.9484 103.128 88.5204 102.98 89.2164 102.98C89.9284 102.98 90.5204 103.204 90.9924 103.652C91.4724 104.092 91.7124 104.644 91.7124 105.308C91.7124 105.86 91.5564 106.364 91.2444 106.82C90.9404 107.276 90.3964 107.86 89.6124 108.572L87.0444 110.9H91.7964V111.5H86.0604ZM100.336 113.192C99.2642 112.584 98.4402 111.844 97.8642 110.972C97.2962 110.1 97.0122 109.128 97.0122 108.056C97.0122 106.984 97.2962 106.012 97.8642 105.14C98.4402 104.268 99.2642 103.528 100.336 102.92L100.588 103.316C98.6202 104.524 97.6362 106.104 97.6362 108.056C97.6362 110.008 98.6202 111.588 100.588 112.796L100.336 113.192ZM101.892 111.5V111.032L105.024 108.2C105.72 107.568 106.204 107.044 106.476 106.628C106.748 106.204 106.884 105.772 106.884 105.332C106.884 104.804 106.696 104.372 106.32 104.036C105.952 103.7 105.508 103.532 104.988 103.532C104.476 103.532 104.028 103.66 103.644 103.916C103.268 104.172 102.896 104.564 102.528 105.092L102.06 104.78C102.46 104.172 102.884 103.72 103.332 103.424C103.78 103.128 104.352 102.98 105.048 102.98C105.76 102.98 106.352 103.204 106.824 103.652C107.304 104.092 107.544 104.644 107.544 105.308C107.544 105.86 107.388 106.364 107.076 106.82C106.772 107.276 106.228 107.86 105.444 108.572L102.876 110.9H107.628V111.5H101.892ZM112.175 111.62C111.279 111.62 110.535 111.4 109.943 110.96C109.351 110.512 109.055 109.936 109.055 109.232C109.055 108.76 109.227 108.344 109.571 107.984C109.915 107.616 110.363 107.34 110.915 107.156C109.867 106.732 109.343 106.072 109.343 105.176C109.343 104.544 109.627 104.02 110.195 103.604C110.763 103.188 111.423 102.98 112.175 102.98C112.927 102.98 113.587 103.188 114.155 103.604C114.723 104.02 115.007 104.552 115.007 105.2C115.007 106.08 114.483 106.732 113.435 107.156C113.987 107.34 114.435 107.616 114.779 107.984C115.123 108.344 115.295 108.768 115.295 109.256C115.295 109.944 114.995 110.512 114.395 110.96C113.803 111.4 113.063 111.62 112.175 111.62ZM110.375 110.54C110.823 110.884 111.423 111.056 112.175 111.056C112.927 111.056 113.527 110.884 113.975 110.54C114.423 110.188 114.647 109.76 114.647 109.256C114.647 108.736 114.407 108.308 113.927 107.972C113.447 107.628 112.863 107.456 112.175 107.456C111.479 107.456 110.891 107.628 110.411 107.972C109.939 108.316 109.703 108.752 109.703 109.28C109.703 109.776 109.927 110.196 110.375 110.54ZM110.627 106.448C111.051 106.768 111.567 106.928 112.175 106.928C112.783 106.928 113.299 106.768 113.723 106.448C114.147 106.12 114.359 105.696 114.359 105.176C114.359 104.704 114.147 104.316 113.723 104.012C113.307 103.7 112.791 103.544 112.175 103.544C111.559 103.544 111.039 103.7 110.615 104.012C110.199 104.324 109.991 104.72 109.991 105.2C109.991 105.704 110.203 106.12 110.627 106.448ZM116.733 112.784L116.589 112.484C117.037 112.26 117.261 111.968 117.261 111.608V111.5H116.937V110.48H117.729V111.368C117.729 111.744 117.653 112.04 117.501 112.256C117.349 112.472 117.093 112.648 116.733 112.784ZM119.295 111.5V111.032L122.427 108.2C123.123 107.568 123.607 107.044 123.879 106.628C124.151 106.204 124.287 105.772 124.287 105.332C124.287 104.804 124.099 104.372 123.723 104.036C123.355 103.7 122.911 103.532 122.391 103.532C121.879 103.532 121.431 103.66 121.047 103.916C120.671 104.172 120.299 104.564 119.931 105.092L119.463 104.78C119.863 104.172 120.287 103.72 120.735 103.424C121.183 103.128 121.755 102.98 122.451 102.98C123.163 102.98 123.755 103.204 124.227 103.652C124.707 104.092 124.947 104.644 124.947 105.308C124.947 105.86 124.791 106.364 124.479 106.82C124.175 107.276 123.631 107.86 122.847 108.572L120.279 110.9H125.031V111.5H119.295ZM129.577 111.62C128.681 111.62 127.937 111.4 127.345 110.96C126.753 110.512 126.457 109.936 126.457 109.232C126.457 108.76 126.629 108.344 126.973 107.984C127.317 107.616 127.765 107.34 128.317 107.156C127.269 106.732 126.745 106.072 126.745 105.176C126.745 104.544 127.029 104.02 127.597 103.604C128.165 103.188 128.825 102.98 129.577 102.98C130.329 102.98 130.989 103.188 131.557 103.604C132.125 104.02 132.409 104.552 132.409 105.2C132.409 106.08 131.885 106.732 130.837 107.156C131.389 107.34 131.837 107.616 132.181 107.984C132.525 108.344 132.697 108.768 132.697 109.256C132.697 109.944 132.397 110.512 131.797 110.96C131.205 111.4 130.465 111.62 129.577 111.62ZM127.777 110.54C128.225 110.884 128.825 111.056 129.577 111.056C130.329 111.056 130.929 110.884 131.377 110.54C131.825 110.188 132.049 109.76 132.049 109.256C132.049 108.736 131.809 108.308 131.329 107.972C130.849 107.628 130.265 107.456 129.577 107.456C128.881 107.456 128.293 107.628 127.813 107.972C127.341 108.316 127.105 108.752 127.105 109.28C127.105 109.776 127.329 110.196 127.777 110.54ZM128.029 106.448C128.453 106.768 128.969 106.928 129.577 106.928C130.185 106.928 130.701 106.768 131.125 106.448C131.549 106.12 131.761 105.696 131.761 105.176C131.761 104.704 131.549 104.316 131.125 104.012C130.709 103.7 130.193 103.544 129.577 103.544C128.961 103.544 128.441 103.7 128.017 104.012C127.601 104.324 127.393 104.72 127.393 105.2C127.393 105.704 127.605 106.12 128.029 106.448ZM134.891 111.5L141.059 103.1H141.707L135.539 111.5H134.891ZM140.723 111.596C140.187 111.596 139.747 111.388 139.403 110.972C139.059 110.548 138.887 110.04 138.887 109.448C138.887 108.864 139.059 108.36 139.403 107.936C139.755 107.512 140.203 107.3 140.747 107.3C141.283 107.3 141.723 107.512 142.067 107.936C142.411 108.36 142.583 108.864 142.583 109.448C142.583 110.032 142.407 110.536 142.055 110.96C141.711 111.384 141.267 111.596 140.723 111.596ZM140.747 111.08C141.099 111.08 141.387 110.924 141.611 110.612C141.843 110.3 141.959 109.912 141.959 109.448C141.959 108.984 141.839 108.596 141.599 108.284C141.359 107.972 141.067 107.816 140.723 107.816C140.371 107.816 140.079 107.976 139.847 108.296C139.623 108.608 139.511 108.992 139.511 109.448C139.511 109.912 139.631 110.3 139.871 110.612C140.111 110.924 140.403 111.08 140.747 111.08ZM135.851 107.3C135.315 107.3 134.875 107.092 134.531 106.676C134.187 106.252 134.015 105.744 134.015 105.152C134.015 104.568 134.187 104.064 134.531 103.64C134.883 103.216 135.331 103.004 135.875 103.004C136.411 103.004 136.851 103.216 137.195 103.64C137.539 104.064 137.711 104.568 137.711 105.152C137.711 105.736 137.535 106.24 137.183 106.664C136.839 107.088 136.395 107.3 135.851 107.3ZM135.875 106.784C136.227 106.784 136.515 106.628 136.739 106.316C136.971 106.004 137.087 105.616 137.087 105.152C137.087 104.688 136.967 104.3 136.727 103.988C136.487 103.676 136.195 103.52 135.851 103.52C135.499 103.52 135.207 103.68 134.975 104C134.751 104.312 134.639 104.696 134.639 105.152C134.639 105.616 134.759 106.004 134.999 106.316C135.239 106.628 135.531 106.784 135.875 106.784ZM144.23 113.192L143.978 112.796C145.946 111.588 146.93 110.008 146.93 108.056C146.93 106.104 145.946 104.524 143.978 103.316L144.23 102.92C145.302 103.528 146.122 104.268 146.69 105.14C147.266 106.012 147.554 106.984 147.554 108.056C147.554 109.128 147.266 110.1 146.69 110.972C146.122 111.844 145.302 112.584 144.23 113.192Z" fill="#0093FF"/>
</g>
</g>
<defs>
<filter id="filter0_d_40_1965" x="0" y="0.5" width="256" height="200" filterUnits="userSpaceOnUse" color-interpolation-filters="sRGB">
<feFlood flood-opacity="0" result="BackgroundImageFix"/>
<feColorMatrix in="SourceAlpha" type="matrix" values="0 0 0 0 0 0 0 0 0 0 0 0 0 0 0 0 0 0 127 0" result="hardAlpha"/>
<feOffset dy="20"/>
<feGaussianBlur stdDeviation="20"/>
<feComposite in2="hardAlpha" operator="out"/>
<feColorMatrix type="matrix" values="0 0 0 0 0 0 0 0 0 0 0 0 0 0 0 0 0 0 0.1 0"/>
<feBlend mode="normal" in2="BackgroundImageFix" result="effect1_dropShadow_40_1965"/>
<feBlend mode="normal" in="SourceGraphic" in2="effect1_dropShadow_40_1965" result="shape"/>
</filter>
<linearGradient id="paint0_linear_40_1965" x1="158.73" y1="52.336" x2="196.664" y2="70.024" gradientUnits="userSpaceOnUse">
<stop stop-color="white" stop-opacity="0.2"/>
<stop offset="1" stop-color="white" stop-opacity="0"/>
</linearGradient>
<clipPath id="clip0_40_1965">
<rect x="40" y="20.5" width="176" height="120" rx="20" fill="white"/>
</clipPath>
<clipPath id="clip1_40_1965">
<rect width="48" height="48" fill="white" transform="translate(152 36.5)"/>
</clipPath>
</defs>
</svg>
