<svg width="256" height="200" viewBox="0 0 256 200" fill="none" xmlns="http://www.w3.org/2000/svg">
<g filter="url(#filter0_d_40_1957)">
<g clip-path="url(#clip0_40_1957)">
<rect x="40" y="20" width="176" height="120" rx="20" fill="white"/>
<path d="M57.768 57V45.1H58.601L66.812 55.453V45.1H67.662V57H66.999L58.618 46.426V57H57.768ZM70.7907 57V45.1H79.1717V45.916H71.6747V50.795H78.4067V51.611H71.6747V57H70.7907ZM81.5389 57V45.1H82.4229V56.184H89.4099V57H81.5389ZM90.7553 57L95.4983 50.931L90.9253 45.1H91.9793L96.0423 50.336L100.088 45.1H101.125L96.5693 50.914L101.295 57H100.241L96.0083 51.509L91.7923 57H90.7553Z" fill="#303A42"/>
<path d="M59.92 87.372V85.958C58.6787 85.7993 57.5773 85.356 56.616 84.628L57.708 83.032C58.5107 83.6387 59.2713 84.0167 59.99 84.166V81.94C58.9447 81.66 58.1793 81.296 57.694 80.848C57.218 80.3907 56.98 79.756 56.98 78.944C56.98 78.1787 57.246 77.5533 57.778 77.068C58.31 76.5827 59.024 76.2933 59.92 76.2V75.388H61.376V76.228C62.3187 76.3587 63.1867 76.704 63.98 77.264L63.042 78.902C62.4447 78.5007 61.866 78.2253 61.306 78.076V80.19C62.3793 80.4793 63.154 80.862 63.63 81.338C64.106 81.8047 64.344 82.4347 64.344 83.228C64.344 83.9933 64.0733 84.6187 63.532 85.104C63 85.5893 62.2813 85.8833 61.376 85.986V87.372H59.92ZM59.99 79.84V77.95C59.346 78.034 59.024 78.3327 59.024 78.846C59.024 79.07 59.0893 79.2613 59.22 79.42C59.36 79.5693 59.6167 79.7093 59.99 79.84ZM61.306 84.236C61.9687 84.1333 62.3 83.8253 62.3 83.312C62.3 83.0693 62.2253 82.8733 62.076 82.724C61.936 82.5653 61.6793 82.416 61.306 82.276V84.236ZM71.3008 86.24C69.2741 86.24 67.5274 85.54 66.0608 84.14L67.9208 81.92C69.0408 82.9333 70.1541 83.44 71.2608 83.44C71.9941 83.44 72.5674 83.2667 72.9808 82.92C73.3941 82.5733 73.6008 82.0867 73.6008 81.46C73.6008 80.8733 73.3741 80.4133 72.9208 80.08C72.4674 79.7333 71.8674 79.56 71.1208 79.56C70.3741 79.56 69.5941 79.7333 68.7808 80.08L67.0008 78.9L67.4008 72H76.0008V74.7H70.0408L69.8808 77.12C70.5208 76.96 71.1341 76.88 71.7208 76.88C73.1741 76.88 74.3541 77.2533 75.2608 78C76.1674 78.7467 76.6208 79.88 76.6208 81.4C76.6208 82.88 76.1341 84.06 75.1608 84.94C74.2008 85.8067 72.9141 86.24 71.3008 86.24ZM79.023 86L85.283 74.66H78.703V72H88.783V74.32L82.503 86H79.023ZM95.7052 86.24C93.4252 86.24 91.6052 85.4333 90.2452 83.82L92.3652 81.8C93.3652 82.92 94.4918 83.48 95.7452 83.48C96.3318 83.48 96.8052 83.3267 97.1652 83.02C97.5385 82.7 97.7252 82.2733 97.7252 81.74C97.7252 81.1667 97.4852 80.7267 97.0052 80.42C96.5252 80.1133 95.8518 79.96 94.9852 79.96H93.7052L93.2252 78L96.5652 74.64H91.0652V72H100.525V74.32L96.9852 77.7C99.4918 78.1267 100.745 79.4467 100.745 81.66C100.745 83.0067 100.285 84.1067 99.3652 84.96C98.4585 85.8133 97.2385 86.24 95.7052 86.24ZM102.837 89.24L102.577 87.98C103.884 87.8333 104.537 87.2467 104.537 86.22V86H103.297V82.8H106.537V85.5C106.537 86.78 106.224 87.7133 105.597 88.3C104.984 88.9 104.064 89.2133 102.837 89.24ZM110.494 86V75.02L108.054 75.62L107.414 73.1L111.434 71.9H113.534V86H110.494ZM123.481 86V82.98H116.641L116.141 80.8L123.821 71.9H126.421V80.48H128.301V82.98H126.421V86H123.481ZM119.761 80.48H123.481V76.12L119.761 80.48Z" fill="#303A42"/>
<path d="M57.116 107.064V106.452H62.564V107.064H57.116ZM64.2518 111V110.532L67.3838 107.7C68.0798 107.068 68.5638 106.544 68.8358 106.128C69.1078 105.704 69.2438 105.272 69.2438 104.832C69.2438 104.304 69.0558 103.872 68.6798 103.536C68.3118 103.2 67.8678 103.032 67.3478 103.032C66.8358 103.032 66.3878 103.16 66.0038 103.416C65.6278 103.672 65.2558 104.064 64.8878 104.592L64.4198 104.28C64.8198 103.672 65.2438 103.22 65.6918 102.924C66.1398 102.628 66.7118 102.48 67.4078 102.48C68.1198 102.48 68.7118 102.704 69.1838 103.152C69.6638 103.592 69.9038 104.144 69.9038 104.808C69.9038 105.36 69.7478 105.864 69.4358 106.32C69.1318 106.776 68.5878 107.36 67.8038 108.072L65.2358 110.4H69.9878V111H64.2518ZM71.5339 112.284L71.3899 111.984C71.8379 111.76 72.0619 111.468 72.0619 111.108V111H71.7379V109.98H72.5299V110.868C72.5299 111.244 72.4539 111.54 72.3019 111.756C72.1499 111.972 71.8939 112.148 71.5339 112.284ZM74.0955 111V110.532L77.2275 107.7C77.9235 107.068 78.4075 106.544 78.6795 106.128C78.9515 105.704 79.0875 105.272 79.0875 104.832C79.0875 104.304 78.8995 103.872 78.5235 103.536C78.1555 103.2 77.7115 103.032 77.1915 103.032C76.6795 103.032 76.2315 103.16 75.8475 103.416C75.4715 103.672 75.0995 104.064 74.7315 104.592L74.2635 104.28C74.6635 103.672 75.0875 103.22 75.5355 102.924C75.9835 102.628 76.5555 102.48 77.2515 102.48C77.9635 102.48 78.5555 102.704 79.0275 103.152C79.5075 103.592 79.7475 104.144 79.7475 104.808C79.7475 105.36 79.5915 105.864 79.2795 106.32C78.9755 106.776 78.4315 107.36 77.6475 108.072L75.0795 110.4H79.8315V111H74.0955ZM84.1137 111.144C83.2497 111.144 82.4057 110.796 81.5817 110.1L81.9777 109.62C82.6897 110.26 83.4057 110.58 84.1257 110.58C84.9417 110.58 85.6097 110.204 86.1297 109.452C86.6497 108.692 86.9097 107.72 86.9097 106.536V106.248C86.3097 107.328 85.4377 107.868 84.2937 107.868C83.4537 107.868 82.7577 107.62 82.2057 107.124C81.6617 106.628 81.3897 106.012 81.3897 105.276C81.3897 104.484 81.6657 103.816 82.2177 103.272C82.7697 102.728 83.4777 102.456 84.3417 102.456C85.1977 102.456 85.9097 102.74 86.4777 103.308C87.1817 104.012 87.5337 105.112 87.5337 106.608C87.5337 107.92 87.2097 109.004 86.5617 109.86C85.9137 110.716 85.0977 111.144 84.1137 111.144ZM84.3177 107.316C85.0057 107.316 85.5657 107.1 85.9977 106.668C86.4377 106.228 86.6577 105.724 86.6577 105.156C86.6577 104.556 86.4297 104.052 85.9737 103.644C85.5257 103.228 84.9577 103.02 84.2697 103.02C83.6057 103.02 83.0657 103.244 82.6497 103.692C82.2417 104.132 82.0377 104.66 82.0377 105.276C82.0377 105.868 82.2497 106.356 82.6737 106.74C83.1057 107.124 83.6537 107.316 84.3177 107.316ZM96.0705 112.692C94.9985 112.084 94.1745 111.344 93.5985 110.472C93.0305 109.6 92.7465 108.628 92.7465 107.556C92.7465 106.484 93.0305 105.512 93.5985 104.64C94.1745 103.768 94.9985 103.028 96.0705 102.42L96.3225 102.816C94.3545 104.024 93.3705 105.604 93.3705 107.556C93.3705 109.508 94.3545 111.088 96.3225 112.296L96.0705 112.692ZM101.299 111.144C100.259 111.144 99.4188 110.724 98.7788 109.884C98.1468 109.036 97.8308 108.008 97.8308 106.8C97.8308 106.024 97.9708 105.308 98.2508 104.652C98.5308 103.996 98.9388 103.468 99.4748 103.068C100.019 102.66 100.635 102.456 101.323 102.456C102.363 102.456 103.199 102.88 103.831 103.728C104.471 104.568 104.791 105.592 104.791 106.8C104.791 107.576 104.651 108.292 104.371 108.948C104.091 109.604 103.679 110.136 103.135 110.544C102.599 110.944 101.987 111.144 101.299 111.144ZM99.2708 109.452C99.7988 110.204 100.483 110.58 101.323 110.58C102.163 110.58 102.843 110.208 103.363 109.464C103.883 108.712 104.143 107.824 104.143 106.8C104.143 105.776 103.879 104.892 103.351 104.148C102.823 103.396 102.139 103.02 101.299 103.02C100.459 103.02 99.7788 103.392 99.2588 104.136C98.7388 104.88 98.4788 105.768 98.4788 106.8C98.4788 107.816 98.7428 108.7 99.2708 109.452ZM106.116 112.284L105.972 111.984C106.42 111.76 106.644 111.468 106.644 111.108V111H106.32V109.98H107.112V110.868C107.112 111.244 107.036 111.54 106.884 111.756C106.732 111.972 106.476 112.148 106.116 112.284ZM113.442 111V108.948H108.894L108.678 108.48L113.478 102.54H114.042V108.408H115.41V108.948H114.042V111H113.442ZM109.434 108.408H113.442V103.44L109.434 108.408ZM120.318 111.144C119.278 111.144 118.438 110.724 117.798 109.884C117.166 109.036 116.85 108.008 116.85 106.8C116.85 106.024 116.99 105.308 117.27 104.652C117.55 103.996 117.958 103.468 118.494 103.068C119.038 102.66 119.654 102.456 120.342 102.456C121.382 102.456 122.218 102.88 122.85 103.728C123.49 104.568 123.81 105.592 123.81 106.8C123.81 107.576 123.67 108.292 123.39 108.948C123.11 109.604 122.698 110.136 122.154 110.544C121.618 110.944 121.006 111.144 120.318 111.144ZM118.29 109.452C118.818 110.204 119.502 110.58 120.342 110.58C121.182 110.58 121.862 110.208 122.382 109.464C122.902 108.712 123.162 107.824 123.162 106.8C123.162 105.776 122.898 104.892 122.37 104.148C121.842 103.396 121.158 103.02 120.318 103.02C119.478 103.02 118.798 103.392 118.278 104.136C117.758 104.88 117.498 105.768 117.498 106.8C117.498 107.816 117.762 108.7 118.29 109.452ZM126.126 111L132.294 102.6H132.942L126.774 111H126.126ZM131.958 111.096C131.422 111.096 130.982 110.888 130.638 110.472C130.294 110.048 130.122 109.54 130.122 108.948C130.122 108.364 130.294 107.86 130.638 107.436C130.99 107.012 131.438 106.8 131.982 106.8C132.518 106.8 132.958 107.012 133.302 107.436C133.646 107.86 133.818 108.364 133.818 108.948C133.818 109.532 133.642 110.036 133.29 110.46C132.946 110.884 132.502 111.096 131.958 111.096ZM131.982 110.58C132.334 110.58 132.622 110.424 132.846 110.112C133.078 109.8 133.194 109.412 133.194 108.948C133.194 108.484 133.074 108.096 132.834 107.784C132.594 107.472 132.302 107.316 131.958 107.316C131.606 107.316 131.314 107.476 131.082 107.796C130.858 108.108 130.746 108.492 130.746 108.948C130.746 109.412 130.866 109.8 131.106 110.112C131.346 110.424 131.638 110.58 131.982 110.58ZM127.086 106.8C126.55 106.8 126.11 106.592 125.766 106.176C125.422 105.752 125.25 105.244 125.25 104.652C125.25 104.068 125.422 103.564 125.766 103.14C126.118 102.716 126.566 102.504 127.11 102.504C127.646 102.504 128.086 102.716 128.43 103.14C128.774 103.564 128.946 104.068 128.946 104.652C128.946 105.236 128.77 105.74 128.418 106.164C128.074 106.588 127.63 106.8 127.086 106.8ZM127.11 106.284C127.462 106.284 127.75 106.128 127.974 105.816C128.206 105.504 128.322 105.116 128.322 104.652C128.322 104.188 128.202 103.8 127.962 103.488C127.722 103.176 127.43 103.02 127.086 103.02C126.734 103.02 126.442 103.18 126.21 103.5C125.986 103.812 125.874 104.196 125.874 104.652C125.874 105.116 125.994 105.504 126.234 105.816C126.474 106.128 126.766 106.284 127.11 106.284ZM135.464 112.692L135.212 112.296C137.18 111.088 138.164 109.508 138.164 107.556C138.164 105.604 137.18 104.024 135.212 102.816L135.464 102.42C136.536 103.028 137.356 103.768 137.924 104.64C138.5 105.512 138.788 106.484 138.788 107.556C138.788 108.628 138.5 109.6 137.924 110.472C137.356 111.344 136.536 112.084 135.464 112.692Z" fill="#FA5555"/>
<g clip-path="url(#clip1_40_1957)">
<path d="M172.34 62.92L172.32 73.04C172.32 82.66 172.3 83.2 172.2 83.2C171.84 83.2 168.8 83.4 167.78 83.5C167.12 83.56 165.78 83.7 164.82 83.82C163.84 83.94 163.04 84.02 163.02 84C163.02 83.98 163 73.18 163 59.98V36L172.34 62.92ZM188.98 36.02H179.72L179.7 46.64V57.298L188.96 83.98C189 83.96 189 73.14 189 59.96L188.98 36.02Z" fill="#AD080F"/>
<path d="M188.96 83.98H188.88C188.72 83.98 188.4 83.96 188.02 83.92C185.88 83.66 183.06 83.4 180.78 83.3C180.04 83.26 179.42 83.22 179.4 83.22C179.4 83.22 178.82 81.54 177.72 78.4C176.66 75.34 175.1 70.86 173.08 65.04L172.34 62.92L163 36H172.3L172.7 37.14L174.46 42.2L188.96 83.98Z" fill="#DF0D12"/>
</g>
</g>
</g>
<defs>
<filter id="filter0_d_40_1957" x="0" y="0" width="256" height="200" filterUnits="userSpaceOnUse" color-interpolation-filters="sRGB">
<feFlood flood-opacity="0" result="BackgroundImageFix"/>
<feColorMatrix in="SourceAlpha" type="matrix" values="0 0 0 0 0 0 0 0 0 0 0 0 0 0 0 0 0 0 127 0" result="hardAlpha"/>
<feOffset dy="20"/>
<feGaussianBlur stdDeviation="20"/>
<feComposite in2="hardAlpha" operator="out"/>
<feColorMatrix type="matrix" values="0 0 0 0 0 0 0 0 0 0 0 0 0 0 0 0 0 0 0.1 0"/>
<feBlend mode="normal" in2="BackgroundImageFix" result="effect1_dropShadow_40_1957"/>
<feBlend mode="normal" in="SourceGraphic" in2="effect1_dropShadow_40_1957" result="shape"/>
</filter>
<clipPath id="clip0_40_1957">
<rect x="40" y="20" width="176" height="120" rx="20" fill="white"/>
</clipPath>
<clipPath id="clip1_40_1957">
<rect width="48" height="48" fill="white" transform="translate(152 36)"/>
</clipPath>
</defs>
</svg>
