<svg width="155" height="25" viewBox="0 0 155 25" fill="none" xmlns="http://www.w3.org/2000/svg">
<path d="M18.7866 13.4445L13.3956 22.6774L8.00473 13.4445H18.7866ZM20.2308 12.6193H6.55469L13.3956 24.3105L20.2308 12.6193Z" fill="#0A2730"/>
<path d="M28.1593 1.96093L33.5502 11.1938H22.7684L28.1593 1.96093ZM28.1593 0.310547L21.3184 12.0017H35.0003L28.1593 0.310547Z" fill="#0A2730"/>
<path d="M0 0.310547L5.7359 10.6514L12.0038 0.570208L0 0.310547Z" fill="#0093FF"/>
<path d="M13.3954 1.21643L19.412 11.4996H7.36719L13.3954 1.21643Z" fill="#0093FF"/>
<path d="M20.9612 13.7446L26.9836 24.3106H14.6523L20.7741 13.7446H20.9612Z" fill="#0093FF"/>
<path d="M22.2656 13.104L28.1594 23.5083L34.135 13.104H22.2656Z" fill="#0093FF"/>
<path d="M60.0327 1.97961V22.3433H56.3139L47.4545 9.52649H47.3054V22.3433H43V1.97961H46.7784L55.5682 14.7864H55.7472V1.97961H60.0327Z" fill="#0A2730"/>
<path d="M70.4705 22.6415C68.8995 22.6415 67.5472 22.3234 66.4137 21.687C65.2868 21.044 64.4184 20.1359 63.8086 18.9626C63.1987 17.7826 62.8938 16.3873 62.8938 14.7765C62.8938 13.2055 63.1987 11.8267 63.8086 10.6401C64.4184 9.45357 65.2769 8.52886 66.3839 7.86598C67.4975 7.2031 68.8034 6.87166 70.3015 6.87166C71.3091 6.87166 72.247 7.03407 73.1154 7.35888C73.9904 7.67706 74.7527 8.15764 75.4023 8.80064C76.0586 9.44363 76.569 10.2523 76.9336 11.2268C77.2982 12.1946 77.4805 13.3281 77.4805 14.6273V15.7907H64.5842V13.1657H73.4933C73.4933 12.5558 73.3607 12.0156 73.0955 11.545C72.8304 11.0743 72.4625 10.7064 71.9918 10.4413C71.5278 10.1695 70.9876 10.0336 70.3711 10.0336C69.7281 10.0336 69.158 10.1827 68.6609 10.481C68.1703 10.7727 67.7859 11.1671 67.5075 11.6643C67.229 12.1548 67.0865 12.7017 67.0799 13.3049V15.8006C67.0799 16.5563 67.2191 17.2093 67.4975 17.7594C67.7826 18.3096 68.1836 18.7339 68.7006 19.0322C69.2177 19.3305 69.8308 19.4796 70.5401 19.4796C71.0108 19.4796 71.4416 19.4133 71.8327 19.2808C72.2238 19.1482 72.5586 18.9493 72.837 18.6842C73.1154 18.419 73.3275 18.0942 73.4734 17.7097L77.391 17.9683C77.1921 18.9095 76.7844 19.7315 76.168 20.4342C75.5581 21.1302 74.7693 21.6737 73.8015 22.0648C72.8403 22.4493 71.73 22.6415 70.4705 22.6415Z" fill="#0A2730"/>
<path d="M83.511 7.07052L86.315 12.41L89.1886 7.07052H93.5337L89.109 14.7069L93.6531 22.3433H89.3278L86.315 17.0634L83.3519 22.3433H78.9769L83.511 14.7069L79.136 7.07052H83.511Z" fill="#0A2730"/>
<path d="M102.403 22.6415C100.839 22.6415 99.493 22.3101 98.3661 21.6472C97.2459 20.9777 96.3841 20.0497 95.7809 18.8631C95.1843 17.6766 94.886 16.3111 94.886 14.7665C94.886 13.2022 95.1876 11.83 95.7908 10.6501C96.4007 9.46352 97.2657 8.5388 98.386 7.87592C99.5063 7.20641 100.839 6.87166 102.383 6.87166C103.716 6.87166 104.882 7.11361 105.883 7.59751C106.884 8.08141 107.676 8.76086 108.26 9.63586C108.843 10.5109 109.164 11.5383 109.224 12.7183H105.227C105.114 11.9559 104.816 11.3428 104.332 10.8788C103.855 10.4081 103.228 10.1728 102.453 10.1728C101.797 10.1728 101.223 10.3518 100.733 10.7097C100.249 11.0611 99.8709 11.5748 99.5991 12.2509C99.3273 12.9271 99.1914 13.7457 99.1914 14.7069C99.1914 15.6813 99.324 16.5099 99.5891 17.1927C99.8609 17.8754 100.242 18.3958 100.733 18.7538C101.223 19.1117 101.797 19.2907 102.453 19.2907C102.937 19.2907 103.371 19.1913 103.755 18.9924C104.146 18.7935 104.468 18.5052 104.72 18.1273C104.978 17.7429 105.147 17.2822 105.227 16.7452H109.224C109.158 17.9119 108.84 18.9394 108.27 19.8276C107.706 20.7093 106.927 21.3986 105.933 21.8958C104.939 22.393 103.762 22.6415 102.403 22.6415Z" fill="#0A2730"/>
<path d="M118.896 22.6415C117.325 22.6415 115.973 22.3234 114.839 21.687C113.713 21.044 112.844 20.1359 112.234 18.9626C111.625 17.7826 111.32 16.3873 111.32 14.7765C111.32 13.2055 111.625 11.8267 112.234 10.6401C112.844 9.45357 113.703 8.52886 114.81 7.86598C115.923 7.2031 117.229 6.87166 118.727 6.87166C119.735 6.87166 120.673 7.03407 121.541 7.35888C122.416 7.67706 123.179 8.15764 123.828 8.80064C124.484 9.44363 124.995 10.2523 125.359 11.2268C125.724 12.1946 125.906 13.3281 125.906 14.6273V15.7907H113.01V13.1657H121.919C121.919 12.5558 121.786 12.0156 121.521 11.545C121.256 11.0743 120.888 10.7064 120.418 10.4413C119.954 10.1695 119.413 10.0336 118.797 10.0336C118.154 10.0336 117.584 10.1827 117.087 10.481C116.596 10.7727 116.212 11.1671 115.933 11.6643C115.655 12.1548 115.512 12.7017 115.506 13.3049V15.8006C115.506 16.5563 115.645 17.2093 115.923 17.7594C116.208 18.3096 116.609 18.7339 117.126 19.0322C117.643 19.3305 118.257 19.4796 118.966 19.4796C119.437 19.4796 119.867 19.4133 120.259 19.2808C120.65 19.1482 120.984 18.9493 121.263 18.6842C121.541 18.419 121.753 18.0942 121.899 17.7097L125.817 17.9683C125.618 18.9095 125.21 19.7315 124.594 20.4342C123.984 21.1302 123.195 21.6737 122.227 22.0648C121.266 22.4493 120.156 22.6415 118.896 22.6415Z" fill="#0A2730"/>
<path d="M132.906 13.5137V22.3433H128.67V7.07052H132.707V9.76513H132.886C133.224 8.87687 133.791 8.17422 134.587 7.65717C135.382 7.1335 136.347 6.87166 137.48 6.87166C138.541 6.87166 139.465 7.10367 140.254 7.56768C141.043 8.0317 141.656 8.69458 142.094 9.55632C142.531 10.4114 142.75 11.4323 142.75 12.6188V22.3433H138.514V13.3745C138.521 12.4398 138.282 11.7107 137.798 11.187C137.314 10.6567 136.648 10.3915 135.8 10.3915C135.23 10.3915 134.726 10.5142 134.288 10.7594C133.857 11.0047 133.519 11.3627 133.274 11.8333C133.036 12.2973 132.913 12.8575 132.906 13.5137Z" fill="#0A2730"/>
<path d="M154.212 7.07052V10.2523H145.015V7.07052H154.212ZM147.103 3.41143H151.338V17.6501C151.338 18.0412 151.398 18.3461 151.517 18.5648C151.637 18.777 151.802 18.9261 152.015 19.0123C152.233 19.0985 152.485 19.1415 152.77 19.1415C152.969 19.1415 153.168 19.125 153.367 19.0918C153.566 19.0521 153.718 19.0222 153.824 19.0023L154.49 22.1543C154.278 22.2206 153.98 22.2968 153.596 22.383C153.211 22.4758 152.744 22.5322 152.194 22.5521C151.173 22.5918 150.278 22.4559 149.509 22.1444C148.747 21.8328 148.153 21.3489 147.729 20.6927C147.305 20.0364 147.096 19.2078 147.103 18.2069V3.41143Z" fill="#0A2730"/>
</svg>
